# xmcd
#
# Track frame offsets: 
#        150
#        17418
#        40566
#        58419
#        81306
#        101671
#        124106
#        152978
#        172404
#        203805
#        223517
#        235026
#        252803
#        278831
#        295092
#
# Disc length: 4223 seconds
#
# Revision: 3
# Processed by: cddbd v1.5.1PL2 Copyright (c) Steve Scherf et al.
# Submitted via: ExactAudioCopy v0.90b4
#
DISCID=d6107d0f
DTITLE=Taj Mahal - An Evening of Acoustic Music
DYEAR=1996
DGENRE=Blues
TTITLE0=Stagger Lee
TTITLE1=Dust My Broom
TTITLE2=Take This Hammer
TTITLE3=Blues With A Feeling
TTITLE4=Big Legged Mamas Are Back In Style Again
TTITLE5=Crossing
TTITLE6=Come On In My Kitchen
TTITLE7=Candy Man
TTITLE8=Satisfied 'N' Tickled Too
TTITLE9=Sittin' On Top Of The World
TTITLE10=Cake Walk Into Town
TTITLE11=Ain't Gwine To Whistle Dixie Anymo'
TTITLE12=Big Kneed Gal
TTITLE13=Texas Woman Blues
TTITLE14=Tom and Sally Drake
EXTD=YEAR: 1994 ID3G: 0
EXTT0=
EXTT1=
EXTT2=
EXTT3=
EXTT4=
EXTT5=
EXTT6=
EXTT7=
EXTT8=
EXTT9=
EXTT10=
EXTT11=
EXTT12=
EXTT13=
EXTT14=
PLAYORDER=
